# xmcd CD database file
#
# Track frame offsets:
#	150
#	19154
#	32206
#
# Disc length: 693 seconds
#
# Revision: 1
# Processed by: cddbd v1.5.2PL0 Copyright (c) Steve Scherf et al.
# Submitted via: CDex 1.51
#
DISCID=1d02b303
DTITLE=蘇打綠 - 遲到千年
DYEAR=2006
DGENRE=普通輕鬆音樂
TTITLE0=遲到千年(Demo)
TTITLE1=墜落(Demo)
TTITLE2=遲到千年
EXTD=YEAR: 2006
EXTT0=
EXTT1=
EXTT2=
PLAYORDER=
